ffmpeg started on 2025-07-09 at 15:12:45
Report written to "D:\Convert\FFMetrics\reports\psnr_report-6.txt"
Log level: 32
Command line:
ffmpeg -hide_banner -nostdin -i "G:\\\xc0\xed\xe8\xec\xe5\\[\xd2\xee\xef]\\Fate\\\xc4\xe5\xe2\xee\xf7\xea\xe0-\xe2\xee\xeb\xf8\xe5\xe1\xed\xe8\xf6\xe0 \xc8\xeb\xeb\xe8\xff\\\xd2\xc2-1\\[AniDub]_Fate_-_Kaleid_Liner_Prisma_Illya_[OVA]_[720p_AAC]_[Cuba77_Oriko]_HEVC.mkv" -i "G:\\\xc0\xed\xe8\xec\xe5\\[\xd2\xee\xef]\\Fate\\\xc4\xe5\xe2\xee\xf7\xea\xe0-\xe2\xee\xeb\xf8\xe5\xe1\xed\xe8\xf6\xe0 \xc8\xeb\xeb\xe8\xff\\\xd2\xc2-1\\[AniDub]_Fate_-_Kaleid_Liner_Prisma_Illya_[OVA]_[720p_AAC]_[Cuba77_Oriko].mp4" -lavfi "[0:v]settb=AVTB,setpts=PTS-STARTPTS,format=pix_fmts=yuv420p10,fps=24000/1001,scale=1280:720:flags=bicubic[main];[1:v]settb=AVTB,setpts=PTS-STARTPTS,format=pix_fmts=yuv420p,fps=24000/1001,scale=1280:720:flags=bicubic[ref];[main][ref]psnr=eof_action=endall:stats_file='D\\:/Convert/FFMetrics/logs/psnr_logfile-6.txt'" -f null -
Input #0, matroska,webm, from 'G:\Аниме\[Топ]\Fate\Девочка-волшебница Иллия\ТВ-1\[AniDub]_Fate_-_Kaleid_Liner_Prisma_Illya_[OVA]_[720p_AAC]_[Cuba77_Oriko]_HEVC.mkv':
  Metadata:
    COMPATIBLE_BRANDS: isom
    MAJOR_BRAND     : isom
    MINOR_VERSION   : 1
    ENCODER         : Lavf61.7.100
  Duration: 00:24:45.48, start: -0.021000, bitrate: 715 kb/s
  Stream #0:0: Video: hevc (Main 10), yuv420p10le(tv, bt709, progressive), 1280x720 [SAR 1:1 DAR 16:9], 23.98 fps, 23.98 tbr, 1k tbn (default)
      Metadata:
        HANDLER_NAME    : Video
        VENDOR_ID       : [0][0][0][0]
        ENCODER         : Lavc61.19.100 libx265
        BPS             : 518857
        DURATION        : 00:24:45.483708333
        NUMBER_OF_FRAMES: 35616
        NUMBER_OF_BYTES : 96344221
        _STATISTICS_WRITING_APP: mkvpropedit v66.0.0 ('Josie') 64-bit
        _STATISTICS_WRITING_DATE_UTC: 2025-07-08 13:06:15
        _STATISTICS_TAGS: BPS DURATION NUMBER_OF_FRAMES NUMBER_OF_BYTES
  Stream #0:1(rus): Audio: aac (LC), 48000 Hz, stereo, fltp (default)
      Metadata:
        HANDLER_NAME    : GPAC ISO Audio Handler
        VENDOR_ID       : [0][0][0][0]
        ENCODER         : Lavc61.19.100 aac
        BPS             : 192996
        DURATION        : 00:24:45.461000000
        NUMBER_OF_FRAMES: 69632
        NUMBER_OF_BYTES : 35836169
        _STATISTICS_WRITING_APP: mkvpropedit v66.0.0 ('Josie') 64-bit
        _STATISTICS_WRITING_DATE_UTC: 2025-07-08 13:06:15
        _STATISTICS_TAGS: BPS DURATION NUMBER_OF_FRAMES NUMBER_OF_BYTES
Input #1, mov,mp4,m4a,3gp,3g2,mj2, from 'G:\Аниме\[Топ]\Fate\Девочка-волшебница Иллия\ТВ-1\[AniDub]_Fate_-_Kaleid_Liner_Prisma_Illya_[OVA]_[720p_AAC]_[Cuba77_Oriko].mp4':
  Metadata:
    major_brand     : isom
    minor_version   : 1
    compatible_brands: isom
    creation_time   : 2014-04-11T15:36:11.000000Z
    encoder         : Yamb 2.1.0.0 [http://yamb.unite-video.com]
  Duration: 00:24:45.48, start: 0.000000, bitrate: 1383 kb/s
  Stream #1:0[0x1](und): Video: h264 (High) (avc1 / 0x31637661), yuv420p(progressive), 1280x720, 1187 kb/s, 23.98 fps, 23.98 tbr, 24k tbn (default)
      Metadata:
        creation_time   : 2014-03-13T13:06:47.000000Z
        handler_name    : Video
        vendor_id       : [0][0][0][0]
        encoder         : AVC Coding
  Stream #1:1[0x2](rus): Audio: aac (LC) (mp4a / 0x6134706D), 48000 Hz, stereo, fltp, 192 kb/s (default)
      Metadata:
        creation_time   : 2014-04-11T15:36:14.000000Z
        handler_name    : GPAC ISO Audio Handler
        vendor_id       : [0][0][0][0]
Stream mapping:
  Stream #0:0 (hevc) -> settb:default
  Stream #1:0 (h264) -> settb:default
  psnr:default -> Stream #0:0 (wrapped_avframe)
  Stream #0:1 -> #0:1 (aac (native) -> pcm_s16le (native))
[swscaler @ 0000025871b62880] No accelerated colorspace conversion found from yuv420p to bgr48le.
[swscaler @ 0000025871c87300] No accelerated colorspace conversion found from yuv420p to bgr48le.
[swscaler @ 0000025871e18200] No accelerated colorspace conversion found from yuv420p to bgr48le.
[swscaler @ 0000025871eeb9c0] No accelerated colorspace conversion found from yuv420p to bgr48le.
[swscaler @ 0000025871f5c900] No accelerated colorspace conversion found from yuv420p to bgr48le.
[swscaler @ 0000025871fd6900] No accelerated colorspace conversion found from yuv420p to bgr48le.
[swscaler @ 0000025872036740] No accelerated colorspace conversion found from yuv420p to bgr48le.
[swscaler @ 00000258720a6bc0] No accelerated colorspace conversion found from yuv420p to bgr48le.
[swscaler @ 0000025872102040] No accelerated colorspace conversion found from yuv420p to bgr48le.
[swscaler @ 000002587219e040] No accelerated colorspace conversion found from yuv420p to bgr48le.
[swscaler @ 000002587220d040] No accelerated colorspace conversion found from yuv420p to bgr48le.
[swscaler @ 0000025872275040] No accelerated colorspace conversion found from yuv420p to bgr48le.
[swscaler @ 00000258722dc040] No accelerated colorspace conversion found from yuv420p to bgr48le.
[swscaler @ 0000025872361040] No accelerated colorspace conversion found from yuv420p to bgr48le.
[swscaler @ 000002586b073ec0] No accelerated colorspace conversion found from yuv420p to bgr48le.
[swscaler @ 0000025872410040] No accelerated colorspace conversion found from yuv420p to bgr48le.
Output #0, null, to 'pipe:':
  Metadata:
    COMPATIBLE_BRANDS: isom
    MAJOR_BRAND     : isom
    MINOR_VERSION   : 1
    encoder         : Lavf61.7.100
  Stream #0:0: Video: wrapped_avframe, yuv420p10le(tv, bt709, progressive), 1280x720 [SAR 1:1 DAR 16:9], q=2-31, 200 kb/s, 23.98 fps, 23.98 tbn
      Metadata:
        encoder         : Lavc61.19.100 wrapped_avframe
  Stream #0:1(rus): Audio: pcm_s16le, 48000 Hz, stereo, s16, 1536 kb/s (default)
      Metadata:
        HANDLER_NAME    : GPAC ISO Audio Handler
        VENDOR_ID       : [0][0][0][0]
        _STATISTICS_TAGS: BPS DURATION NUMBER_OF_FRAMES NUMBER_OF_BYTES
        BPS             : 192996
        DURATION        : 00:24:45.461000000
        NUMBER_OF_FRAMES: 69632
        NUMBER_OF_BYTES : 35836169
        _STATISTICS_WRITING_APP: mkvpropedit v66.0.0 ('Josie') 64-bit
        _STATISTICS_WRITING_DATE_UTC: 2025-07-08 13:06:15
        encoder         : Lavc61.19.100 pcm_s16le
frame=   88 fps=0.0 q=-0.0 size=N/A time=00:00:03.67 bitrate=N/A speed=7.19x    frame=  183 fps=179 q=-0.0 size=N/A time=00:00:07.63 bitrate=N/A speed=7.48x    frame=  290 fps=188 q=-0.0 size=N/A time=00:00:12.09 bitrate=N/A speed=7.83x    frame=  387 fps=188 q=-0.0 size=N/A time=00:00:16.14 bitrate=N/A speed=7.85x    frame=  479 fps=187 q=-0.0 size=N/A time=00:00:19.97 bitrate=N/A speed=7.78x    frame=  588 fps=190 q=-0.0 size=N/A time=00:00:24.52 bitrate=N/A speed=7.93x    frame=  695 fps=193 q=-0.0 size=N/A time=00:00:28.98 bitrate=N/A speed=8.05x    frame=  794 fps=193 q=-0.0 size=N/A time=00:00:33.11 bitrate=N/A speed=8.06x    frame=  900 fps=194 q=-0.0 size=N/A time=00:00:37.53 bitrate=N/A speed=8.09x    frame=  999 fps=194 q=-0.0 size=N/A time=00:00:41.66 bitrate=N/A speed= 8.1x    frame= 1100 fps=194 q=-0.0 size=N/A time=00:00:45.87 bitrate=N/A speed=8.11x    frame= 1198 fps=194 q=-0.0 size=N/A time=00:00:49.96 bitrate=N/A speed=8.08x    frame= 1295 fps=193 q=-0.0 size=N/A time=00:00:54.01 bitrate=N/A speed=8.07x    frame= 1410 fps=195 q=-0.0 size=N/A time=00:00:58.80 bitrate=N/A speed=8.15x    frame= 1514 fps=196 q=-0.0 size=N/A time=00:01:03.14 bitrate=N/A speed=8.17x    frame= 1614 fps=196 q=-0.0 size=N/A time=00:01:07.31 bitrate=N/A speed=8.17x    frame= 1713 fps=196 q=-0.0 size=N/A time=00:01:11.44 bitrate=N/A speed=8.16x    frame= 1815 fps=196 q=-0.0 size=N/A time=00:01:15.70 bitrate=N/A speed=8.16x    frame= 1910 fps=195 q=-0.0 size=N/A time=00:01:19.66 bitrate=N/A speed=8.14x    frame= 2010 fps=195 q=-0.0 size=N/A time=00:01:23.83 bitrate=N/A speed=8.13x    frame= 2121 fps=196 q=-0.0 size=N/A time=00:01:28.46 bitrate=N/A speed=8.17x    frame= 2223 fps=196 q=-0.0 size=N/A time=00:01:32.71 bitrate=N/A speed=8.18x    frame= 2322 fps=196 q=-0.0 size=N/A time=00:01:36.84 bitrate=N/A speed=8.18x    frame= 2425 fps=196 q=-0.0 size=N/A time=00:01:41.14 bitrate=N/A speed=8.18x    frame= 2526 fps=196 q=-0.0 size=N/A time=00:01:45.35 bitrate=N/A speed=8.18x    frame= 2628 fps=196 q=-0.0 size=N/A time=00:01:49.60 bitrate=N/A speed=8.18x    frame= 2728 fps=196 q=-0.0 size=N/A time=00:01:53.78 bitrate=N/A speed=8.17x    frame= 2816 fps=195 q=-0.0 size=N/A time=00:01:57.45 bitrate=N/A speed=8.13x    frame= 2916 fps=195 q=-0.0 size=N/A time=00:02:01.62 bitrate=N/A speed=8.13x    frame= 3021 fps=195 q=-0.0 size=N/A time=00:02:06.00 bitrate=N/A speed=8.14x    frame= 3118 fps=195 q=-0.0 size=N/A time=00:02:10.04 bitrate=N/A speed=8.13x    frame= 3205 fps=194 q=-0.0 size=N/A time=00:02:13.67 bitrate=N/A speed= 8.1x    frame= 3307 fps=194 q=-0.0 size=N/A time=00:02:17.92 bitrate=N/A speed= 8.1x    frame= 3400 fps=194 q=-0.0 size=N/A time=00:02:21.80 bitrate=N/A speed=8.09x    frame= 3500 fps=194 q=-0.0 size=N/A time=00:02:25.97 bitrate=N/A speed=8.09x    frame= 3610 fps=194 q=-0.0 size=N/A time=00:02:30.56 bitrate=N/A speed=8.11x    frame= 3708 fps=194 q=-0.0 size=N/A time=00:02:34.65 bitrate=N/A speed= 8.1x    frame= 3807 fps=194 q=-0.0 size=N/A time=00:02:38.78 bitrate=N/A speed= 8.1x    frame= 3906 fps=194 q=-0.0 size=N/A time=00:02:42.91 bitrate=N/A speed= 8.1x    frame= 4005 fps=194 q=-0.0 size=N/A time=00:02:47.04 bitrate=N/A speed= 8.1x    frame= 4108 fps=194 q=-0.0 size=N/A time=00:02:51.33 bitrate=N/A speed= 8.1x    frame= 4205 fps=194 q=-0.0 size=N/A time=00:02:55.38 bitrate=N/A speed= 8.1x    frame= 4300 fps=194 q=-0.0 size=N/A time=00:02:59.34 bitrate=N/A speed=8.09x    frame= 4410 fps=194 q=-0.0 size=N/A time=00:03:03.93 bitrate=N/A speed=8.11x    frame= 4502 fps=194 q=-0.0 size=N/A time=00:03:07.77 bitrate=N/A speed=8.09x    frame= 4609 fps=194 q=-0.0 size=N/A time=00:03:12.23 bitrate=N/A speed= 8.1x    frame= 4708 fps=194 q=-0.0 size=N/A time=00:03:16.36 bitrate=N/A speed= 8.1x    frame= 4805 fps=194 q=-0.0 size=N/A time=00:03:20.40 bitrate=N/A speed=8.09x    frame= 4902 fps=194 q=-0.0 size=N/A time=00:03:24.45 bitrate=N/A speed=8.09x    frame= 5000 fps=194 q=-0.0 size=N/A time=00:03:28.54 bitrate=N/A speed=8.08x    frame= 5098 fps=194 q=-0.0 size=N/A time=00:03:32.62 bitrate=N/A speed=8.08x    frame= 5205 fps=194 q=-0.0 size=N/A time=00:03:37.09 bitrate=N/A speed= 8.1x    frame= 5304 fps=194 q=-0.0 size=N/A time=00:03:41.22 bitrate=N/A speed=8.09x    frame= 5405 fps=194 q=-0.0 size=N/A time=00:03:45.43 bitrate=N/A speed=8.09x    frame= 5496 fps=194 q=-0.0 size=N/A time=00:03:49.22 bitrate=N/A speed=8.08x    frame= 5599 fps=194 q=-0.0 size=N/A time=00:03:53.52 bitrate=N/A speed=8.08x    frame= 5691 fps=194 q=-0.0 size=N/A time=00:03:57.36 bitrate=N/A speed=8.07x    frame= 5793 fps=194 q=-0.0 size=N/A time=00:04:01.61 bitrate=N/A speed=8.08x    frame= 5899 fps=194 q=-0.0 size=N/A time=00:04:06.03 bitrate=N/A speed=8.08x    frame= 5997 fps=194 q=-0.0 size=N/A time=00:04:10.12 bitrate=N/A speed=8.08x    frame= 6095 fps=194 q=-0.0 size=N/A time=00:04:14.21 bitrate=N/A speed=8.08x    frame= 6191 fps=194 q=-0.0 size=N/A time=00:04:18.21 bitrate=N/A speed=8.07x    frame= 6284 fps=193 q=-0.0 size=N/A time=00:04:22.09 bitrate=N/A speed=8.07x    frame= 6390 fps=194 q=-0.0 size=N/A time=00:04:26.51 bitrate=N/A speed=8.08x    frame= 6489 fps=194 q=-0.0 size=N/A time=00:04:30.64 bitrate=N/A speed=8.07x    frame= 6588 fps=194 q=-0.0 size=N/A time=00:04:34.77 bitrate=N/A speed=8.07x    frame= 6678 fps=193 q=-0.0 size=N/A time=00:04:38.52 bitrate=N/A speed=8.06x    frame= 6777 fps=193 q=-0.0 size=N/A time=00:04:42.65 bitrate=N/A speed=8.06x    frame= 6881 fps=193 q=-0.0 size=N/A time=00:04:46.99 bitrate=N/A speed=8.06x    frame= 6980 fps=193 q=-0.0 size=N/A time=00:04:51.12 bitrate=N/A speed=8.06x    frame= 7081 fps=193 q=-0.0 size=N/A time=00:04:55.33 bitrate=N/A speed=8.06x    frame= 7177 fps=193 q=-0.0 size=N/A time=00:04:59.34 bitrate=N/A speed=8.06x    frame= 7273 fps=193 q=-0.0 size=N/A time=00:05:03.34 bitrate=N/A speed=8.06x    frame= 7369 fps=193 q=-0.0 size=N/A time=00:05:07.34 bitrate=N/A speed=8.05x    frame= 7461 fps=193 q=-0.0 size=N/A time=00:05:11.18 bitrate=N/A speed=8.05x    frame= 7574 fps=193 q=-0.0 size=N/A time=00:05:15.89 bitrate=N/A speed=8.06x    frame= 7663 fps=193 q=-0.0 size=N/A time=00:05:19.61 bitrate=N/A speed=8.05x    frame= 7764 fps=193 q=-0.0 size=N/A time=00:05:23.82 bitrate=N/A speed=8.05x    frame= 7867 fps=193 q=-0.0 size=N/A time=00:05:28.11 bitrate=N/A speed=8.05x    frame= 7967 fps=193 q=-0.0 size=N/A time=00:05:32.29 bitrate=N/A speed=8.05x    frame= 8070 fps=193 q=-0.0 size=N/A time=00:05:36.58 bitrate=N/A speed=8.06x    frame= 8172 fps=193 q=-0.0 size=N/A time=00:05:40.84 bitrate=N/A speed=8.06x    frame= 8273 fps=193 q=-0.0 size=N/A time=00:05:45.05 bitrate=N/A speed=8.06x    frame= 8376 fps=193 q=-0.0 size=N/A time=00:05:49.34 bitrate=N/A speed=8.06x    frame= 8479 fps=193 q=-0.0 size=N/A time=00:05:53.64 bitrate=N/A speed=8.06x    frame= 8578 fps=193 q=-0.0 size=N/A time=00:05:57.77 bitrate=N/A speed=8.06x    frame= 8676 fps=193 q=-0.0 size=N/A time=00:06:01.86 bitrate=N/A speed=8.06x    frame= 8774 fps=193 q=-0.0 size=N/A time=00:06:05.94 bitrate=N/A speed=8.06x    frame= 8875 fps=193 q=-0.0 size=N/A time=00:06:10.16 bitrate=N/A speed=8.06x    frame= 8971 fps=193 q=-0.0 size=N/A time=00:06:14.16 bitrate=N/A speed=8.06x    frame= 9071 fps=193 q=-0.0 size=N/A time=00:06:18.33 bitrate=N/A speed=8.06x    frame= 9174 fps=193 q=-0.0 size=N/A time=00:06:22.63 bitrate=N/A speed=8.06x    frame= 9276 fps=193 q=-0.0 size=N/A time=00:06:26.88 bitrate=N/A speed=8.06x    frame= 9374 fps=193 q=-0.0 size=N/A time=00:06:30.97 bitrate=N/A speed=8.06x    frame= 9476 fps=193 q=-0.0 size=N/A time=00:06:35.22 bitrate=N/A speed=8.06x    frame= 9569 fps=193 q=-0.0 size=N/A time=00:06:39.10 bitrate=N/A speed=8.06x    frame= 9675 fps=193 q=-0.0 size=N/A time=00:06:43.52 bitrate=N/A speed=8.06x    frame= 9774 fps=193 q=-0.0 size=N/A time=00:06:47.65 bitrate=N/A speed=8.06x    frame= 9877 fps=193 q=-0.0 size=N/A time=00:06:51.95 bitrate=N/A speed=8.07x    frame= 9975 fps=193 q=-0.0 size=N/A time=00:06:56.04 bitrate=N/A speed=8.07x    frame=10074 fps=193 q=-0.0 size=N/A time=00:07:00.16 bitrate=N/A speed=8.06x    frame=10176 fps=193 q=-0.0 size=N/A time=00:07:04.42 bitrate=N/A speed=8.07x    frame=10284 fps=194 q=-0.0 size=N/A time=00:07:08.92 bitrate=N/A speed=8.07x    frame=10381 fps=193 q=-0.0 size=N/A time=00:07:12.97 bitrate=N/A speed=8.07x    frame=10479 fps=193 q=-0.0 size=N/A time=00:07:17.06 bitrate=N/A speed=8.07x    frame=10566 fps=193 q=-0.0 size=N/A time=00:07:20.69 bitrate=N/A speed=8.06x    frame=10677 fps=193 q=-0.0 size=N/A time=00:07:25.31 bitrate=N/A speed=8.07x    frame=10770 fps=193 q=-0.0 size=N/A time=00:07:29.19 bitrate=N/A speed=8.06x    frame=10867 fps=193 q=-0.0 size=N/A time=00:07:33.24 bitrate=N/A speed=8.06x    frame=10974 fps=193 q=-0.0 size=N/A time=00:07:37.70 bitrate=N/A speed=8.07x    frame=11073 fps=193 q=-0.0 size=N/A time=00:07:41.83 bitrate=N/A speed=8.07x    frame=11169 fps=193 q=-0.0 size=N/A time=00:07:45.84 bitrate=N/A speed=8.06x    frame=11268 fps=193 q=-0.0 size=N/A time=00:07:49.96 bitrate=N/A speed=8.06x    frame=11364 fps=193 q=-0.0 size=N/A time=00:07:53.97 bitrate=N/A speed=8.06x    frame=11461 fps=193 q=-0.0 size=N/A time=00:07:58.01 bitrate=N/A speed=8.06x    frame=11561 fps=193 q=-0.0 size=N/A time=00:08:02.19 bitrate=N/A speed=8.06x    frame=11658 fps=193 q=-0.0 size=N/A time=00:08:06.23 bitrate=N/A speed=8.06x    frame=11760 fps=193 q=-0.0 size=N/A time=00:08:10.49 bitrate=N/A speed=8.06x    frame=11859 fps=193 q=-0.0 size=N/A time=00:08:14.61 bitrate=N/A speed=8.06x    frame=11967 fps=193 q=-0.0 size=N/A time=00:08:19.12 bitrate=N/A speed=8.06x    frame=12065 fps=193 q=-0.0 size=N/A time=00:08:23.21 bitrate=N/A speed=8.06x    frame=12168 fps=193 q=-0.0 size=N/A time=00:08:27.50 bitrate=N/A speed=8.07x    frame=12274 fps=193 q=-0.0 size=N/A time=00:08:31.92 bitrate=N/A speed=8.07x    frame=12373 fps=193 q=-0.0 size=N/A time=00:08:36.05 bitrate=N/A speed=8.07x    frame=12468 fps=193 q=-0.0 size=N/A time=00:08:40.01 bitrate=N/A speed=8.07x    frame=12568 fps=193 q=-0.0 size=N/A time=00:08:44.19 bitrate=N/A speed=8.06x    frame=12672 fps=193 q=-0.0 size=N/A time=00:08:48.52 bitrate=N/A speed=8.07x    frame=12768 fps=193 q=-0.0 size=N/A time=00:08:52.53 bitrate=N/A speed=8.07x    frame=12872 fps=193 q=-0.0 size=N/A time=00:08:56.86 bitrate=N/A speed=8.07x    frame=12972 fps=193 q=-0.0 size=N/A time=00:09:01.04 bitrate=N/A speed=8.07x    frame=13069 fps=193 q=-0.0 size=N/A time=00:09:05.08 bitrate=N/A speed=8.07x    frame=13164 fps=193 q=-0.0 size=N/A time=00:09:09.04 bitrate=N/A speed=8.06x    frame=13278 fps=194 q=-0.0 size=N/A time=00:09:13.80 bitrate=N/A speed=8.07x    frame=13381 fps=194 q=-0.0 size=N/A time=00:09:18.09 bitrate=N/A speed=8.07x    frame=13480 fps=194 q=-0.0 size=N/A time=00:09:22.22 bitrate=N/A speed=8.08x    frame=13583 fps=194 q=-0.0 size=N/A time=00:09:26.52 bitrate=N/A speed=8.08x    frame=13681 fps=194 q=-0.0 size=N/A time=00:09:30.61 bitrate=N/A speed=8.08x    frame=13777 fps=194 q=-0.0 size=N/A time=00:09:34.61 bitrate=N/A speed=8.07x    frame=13881 fps=194 q=-0.0 size=N/A time=00:09:38.95 bitrate=N/A speed=8.08x    frame=13980 fps=194 q=-0.0 size=N/A time=00:09:43.08 bitrate=N/A speed=8.08x    frame=14075 fps=194 q=-0.0 size=N/A time=00:09:47.04 bitrate=N/A speed=8.07x    frame=14177 fps=194 q=-0.0 size=N/A time=00:09:51.29 bitrate=N/A speed=8.07x    frame=14285 fps=194 q=-0.0 size=N/A time=00:09:55.80 bitrate=N/A speed=8.08x    frame=14384 fps=194 q=-0.0 size=N/A time=00:09:59.93 bitrate=N/A speed=8.08x    frame=14487 fps=194 q=-0.0 size=N/A time=00:10:04.22 bitrate=N/A speed=8.08x    frame=14584 fps=194 q=-0.0 size=N/A time=00:10:08.27 bitrate=N/A speed=8.08x    frame=14687 fps=194 q=-0.0 size=N/A time=00:10:12.57 bitrate=N/A speed=8.08x    frame=14789 fps=194 q=-0.0 size=N/A time=00:10:16.82 bitrate=N/A speed=8.08x    frame=14885 fps=194 q=-0.0 size=N/A time=00:10:20.82 bitrate=N/A speed=8.08x    frame=14987 fps=194 q=-0.0 size=N/A time=00:10:25.08 bitrate=N/A speed=8.08x    frame=15091 fps=194 q=-0.0 size=N/A time=00:10:29.42 bitrate=N/A speed=8.08x    frame=15188 fps=194 q=-0.0 size=N/A time=00:10:33.46 bitrate=N/A speed=8.08x    frame=15295 fps=194 q=-0.0 size=N/A time=00:10:37.92 bitrate=N/A speed=8.08x    frame=15398 fps=194 q=-0.0 size=N/A time=00:10:42.22 bitrate=N/A speed=8.09x    frame=15497 fps=194 q=-0.0 size=N/A time=00:10:46.35 bitrate=N/A speed=8.09x    frame=15591 fps=194 q=-0.0 size=N/A time=00:10:50.27 bitrate=N/A speed=8.08x    frame=15688 fps=194 q=-0.0 size=N/A time=00:10:54.32 bitrate=N/A speed=8.08x    frame=15800 fps=194 q=-0.0 size=N/A time=00:10:58.99 bitrate=N/A speed=8.09x    frame=15899 fps=194 q=-0.0 size=N/A time=00:11:03.12 bitrate=N/A speed=8.09x    frame=15999 fps=194 q=-0.0 size=N/A time=00:11:07.29 bitrate=N/A speed=8.09x    frame=16102 fps=194 q=-0.0 size=N/A time=00:11:11.58 bitrate=N/A speed=8.09x    frame=16200 fps=194 q=-0.0 size=N/A time=00:11:15.67 bitrate=N/A speed=8.09x    frame=16301 fps=194 q=-0.0 size=N/A time=00:11:19.88 bitrate=N/A speed=8.09x    frame=16407 fps=194 q=-0.0 size=N/A time=00:11:24.30 bitrate=N/A speed=8.09x    frame=16508 fps=194 q=-0.0 size=N/A time=00:11:28.52 bitrate=N/A speed=8.09x    frame=16609 fps=194 q=-0.0 size=N/A time=00:11:32.73 bitrate=N/A speed=8.09x    frame=16709 fps=194 q=-0.0 size=N/A time=00:11:36.90 bitrate=N/A speed=8.09x    frame=16815 fps=194 q=-0.0 size=N/A time=00:11:41.32 bitrate=N/A speed=8.09x    frame=16916 fps=194 q=-0.0 size=N/A time=00:11:45.53 bitrate=N/A speed=8.09x    frame=17015 fps=194 q=-0.0 size=N/A time=00:11:49.66 bitrate=N/A speed=8.09x    frame=17127 fps=194 q=-0.0 size=N/A time=00:11:54.33 bitrate=N/A speed= 8.1x    frame=17228 fps=194 q=-0.0 size=N/A time=00:11:58.55 bitrate=N/A speed= 8.1x    frame=17330 fps=194 q=-0.0 size=N/A time=00:12:02.80 bitrate=N/A speed= 8.1x    frame=17433 fps=194 q=-0.0 size=N/A time=00:12:07.10 bitrate=N/A speed= 8.1x    frame=17530 fps=194 q=-0.0 size=N/A time=00:12:11.14 bitrate=N/A speed= 8.1x    frame=17632 fps=194 q=-0.0 size=N/A time=00:12:15.40 bitrate=N/A speed= 8.1x    frame=17738 fps=194 q=-0.0 size=N/A time=00:12:19.82 bitrate=N/A speed= 8.1x    frame=17835 fps=194 q=-0.0 size=N/A time=00:12:23.86 bitrate=N/A speed= 8.1x    frame=17939 fps=194 q=-0.0 size=N/A time=00:12:28.20 bitrate=N/A speed= 8.1x    frame=18037 fps=194 q=-0.0 size=N/A time=00:12:32.29 bitrate=N/A speed= 8.1x    frame=18137 fps=194 q=-0.0 size=N/A time=00:12:36.46 bitrate=N/A speed= 8.1x    frame=18245 fps=194 q=-0.0 size=N/A time=00:12:40.96 bitrate=N/A speed= 8.1x    frame=18345 fps=194 q=-0.0 size=N/A time=00:12:45.13 bitrate=N/A speed=8.11x    frame=18447 fps=194 q=-0.0 size=N/A time=00:12:49.39 bitrate=N/A speed=8.11x    frame=18555 fps=194 q=-0.0 size=N/A time=00:12:53.89 bitrate=N/A speed=8.11x    frame=18654 fps=194 q=-0.0 size=N/A time=00:12:58.02 bitrate=N/A speed=8.11x    frame=18760 fps=194 q=-0.0 size=N/A time=00:13:02.44 bitrate=N/A speed=8.11x    frame=18866 fps=195 q=-0.0 size=N/A time=00:13:06.86 bitrate=N/A speed=8.11x    frame=18966 fps=195 q=-0.0 size=N/A time=00:13:11.04 bitrate=N/A speed=8.11x    frame=19056 fps=194 q=-0.0 size=N/A time=00:13:14.79 bitrate=N/A speed=8.11x    frame=19160 fps=194 q=-0.0 size=N/A time=00:13:19.13 bitrate=N/A speed=8.11x    frame=19263 fps=195 q=-0.0 size=N/A time=00:13:23.42 bitrate=N/A speed=8.11x    frame=19368 fps=195 q=-0.0 size=N/A time=00:13:27.80 bitrate=N/A speed=8.11x    frame=19476 fps=195 q=-0.0 size=N/A time=00:13:32.31 bitrate=N/A speed=8.12x    frame=19579 fps=195 q=-0.0 size=N/A time=00:13:36.60 bitrate=N/A speed=8.12x    frame=19680 fps=195 q=-0.0 size=N/A time=00:13:40.82 bitrate=N/A speed=8.12x    frame=19786 fps=195 q=-0.0 size=N/A time=00:13:45.24 bitrate=N/A speed=8.12x    frame=19888 fps=195 q=-0.0 size=N/A time=00:13:49.49 bitrate=N/A speed=8.12x    frame=19987 fps=195 q=-0.0 size=N/A time=00:13:53.62 bitrate=N/A speed=8.12x    frame=20093 fps=195 q=-0.0 size=N/A time=00:13:58.04 bitrate=N/A speed=8.12x    frame=20197 fps=195 q=-0.0 size=N/A time=00:14:02.38 bitrate=N/A speed=8.12x    frame=20298 fps=195 q=-0.0 size=N/A time=00:14:06.59 bitrate=N/A speed=8.13x    frame=20402 fps=195 q=-0.0 size=N/A time=00:14:10.93 bitrate=N/A speed=8.13x    frame=20502 fps=195 q=-0.0 size=N/A time=00:14:15.10 bitrate=N/A speed=8.13x    frame=20604 fps=195 q=-0.0 size=N/A time=00:14:19.35 bitrate=N/A speed=8.13x    frame=20708 fps=195 q=-0.0 size=N/A time=00:14:23.69 bitrate=N/A speed=8.13x    frame=20803 fps=195 q=-0.0 size=N/A time=00:14:27.65 bitrate=N/A speed=8.13x    frame=20905 fps=195 q=-0.0 size=N/A time=00:14:31.91 bitrate=N/A speed=8.13x    frame=21007 fps=195 q=-0.0 size=N/A time=00:14:36.16 bitrate=N/A speed=8.13x    frame=21093 fps=195 q=-0.0 size=N/A time=00:14:39.75 bitrate=N/A speed=8.12x    frame=21204 fps=195 q=-0.0 size=N/A time=00:14:44.38 bitrate=N/A speed=8.13x    frame=21311 fps=195 q=-0.0 size=N/A time=00:14:48.84 bitrate=N/A speed=8.13x    frame=21405 fps=195 q=-0.0 size=N/A time=00:14:52.76 bitrate=N/A speed=8.13x    frame=21504 fps=195 q=-0.0 size=N/A time=00:14:56.89 bitrate=N/A speed=8.13x    frame=21609 fps=195 q=-0.0 size=N/A time=00:15:01.27 bitrate=N/A speed=8.13x    frame=21709 fps=195 q=-0.0 size=N/A time=00:15:05.44 bitrate=N/A speed=8.13x    frame=21809 fps=195 q=-0.0 size=N/A time=00:15:09.61 bitrate=N/A speed=8.13x    frame=21914 fps=195 q=-0.0 size=N/A time=00:15:13.99 bitrate=N/A speed=8.13x    frame=22013 fps=195 q=-0.0 size=N/A time=00:15:18.12 bitrate=N/A speed=8.13x    frame=22111 fps=195 q=-0.0 size=N/A time=00:15:22.21 bitrate=N/A speed=8.13x    frame=22209 fps=195 q=-0.0 size=N/A time=00:15:26.30 bitrate=N/A speed=8.13x    frame=22305 fps=195 q=-0.0 size=N/A time=00:15:30.30 bitrate=N/A speed=8.12x    frame=22417 fps=195 q=-0.0 size=N/A time=00:15:34.97 bitrate=N/A speed=8.13x    frame=22513 fps=195 q=-0.0 size=N/A time=00:15:38.97 bitrate=N/A speed=8.13x    frame=22610 fps=195 q=-0.0 size=N/A time=00:15:43.02 bitrate=N/A speed=8.13x    frame=22713 fps=195 q=-0.0 size=N/A time=00:15:47.32 bitrate=N/A speed=8.13x    frame=22817 fps=195 q=-0.0 size=N/A time=00:15:51.65 bitrate=N/A speed=8.13x    frame=22914 fps=195 q=-0.0 size=N/A time=00:15:55.70 bitrate=N/A speed=8.13x    frame=23012 fps=195 q=-0.0 size=N/A time=00:15:59.79 bitrate=N/A speed=8.13x    frame=23112 fps=195 q=-0.0 size=N/A time=00:16:03.96 bitrate=N/A speed=8.12x    frame=23211 fps=195 q=-0.0 size=N/A time=00:16:08.09 bitrate=N/A speed=8.12x    frame=23301 fps=195 q=-0.0 size=N/A time=00:16:11.84 bitrate=N/A speed=8.12x    frame=23400 fps=195 q=-0.0 size=N/A time=00:16:15.97 bitrate=N/A speed=8.12x    frame=23496 fps=195 q=-0.0 size=N/A time=00:16:19.97 bitrate=N/A speed=8.12x    frame=23602 fps=195 q=-0.0 size=N/A time=00:16:24.40 bitrate=N/A speed=8.12x    frame=23703 fps=195 q=-0.0 size=N/A time=00:16:28.61 bitrate=N/A speed=8.12x    frame=23801 fps=195 q=-0.0 size=N/A time=00:16:32.70 bitrate=N/A speed=8.12x    frame=23900 fps=195 q=-0.0 size=N/A time=00:16:36.82 bitrate=N/A speed=8.12x    frame=24000 fps=195 q=-0.0 size=N/A time=00:16:41.00 bitrate=N/A speed=8.12x    frame=24097 fps=195 q=-0.0 size=N/A time=00:16:45.04 bitrate=N/A speed=8.12x    frame=24203 fps=195 q=-0.0 size=N/A time=00:16:49.46 bitrate=N/A speed=8.12x    frame=24308 fps=195 q=-0.0 size=N/A time=00:16:53.84 bitrate=N/A speed=8.12x    frame=24409 fps=195 q=-0.0 size=N/A time=00:16:58.05 bitrate=N/A speed=8.12x    frame=24513 fps=195 q=-0.0 size=N/A time=00:17:02.39 bitrate=N/A speed=8.12x    frame=24612 fps=195 q=-0.0 size=N/A time=00:17:06.52 bitrate=N/A speed=8.12x    frame=24712 fps=195 q=-0.0 size=N/A time=00:17:10.69 bitrate=N/A speed=8.12x    frame=24816 fps=195 q=-0.0 size=N/A time=00:17:15.03 bitrate=N/A speed=8.12x    frame=24914 fps=195 q=-0.0 size=N/A time=00:17:19.12 bitrate=N/A speed=8.12x    frame=25008 fps=195 q=-0.0 size=N/A time=00:17:23.04 bitrate=N/A speed=8.12x    frame=25110 fps=195 q=-0.0 size=N/A time=00:17:27.29 bitrate=N/A speed=8.12x    frame=25212 fps=195 q=-0.0 size=N/A time=00:17:31.55 bitrate=N/A speed=8.12x    frame=25318 fps=195 q=-0.0 size=N/A time=00:17:35.97 bitrate=N/A speed=8.12x    frame=25419 fps=195 q=-0.0 size=N/A time=00:17:40.18 bitrate=N/A speed=8.12x    frame=25521 fps=195 q=-0.0 size=N/A time=00:17:44.43 bitrate=N/A speed=8.12x    frame=25621 fps=195 q=-0.0 size=N/A time=00:17:48.60 bitrate=N/A speed=8.12x    frame=25721 fps=195 q=-0.0 size=N/A time=00:17:52.78 bitrate=N/A speed=8.12x    frame=25826 fps=195 q=-0.0 size=N/A time=00:17:57.15 bitrate=N/A speed=8.12x    frame=25924 fps=195 q=-0.0 size=N/A time=00:18:01.24 bitrate=N/A speed=8.12x    frame=26030 fps=195 q=-0.0 size=N/A time=00:18:05.66 bitrate=N/A speed=8.13x    frame=26131 fps=195 q=-0.0 size=N/A time=00:18:09.88 bitrate=N/A speed=8.13x    frame=26232 fps=195 q=-0.0 size=N/A time=00:18:14.09 bitrate=N/A speed=8.13x    frame=26335 fps=195 q=-0.0 size=N/A time=00:18:18.38 bitrate=N/A speed=8.13x    frame=26436 fps=195 q=-0.0 size=N/A time=00:18:22.60 bitrate=N/A speed=8.13x    frame=26539 fps=195 q=-0.0 size=N/A time=00:18:26.89 bitrate=N/A speed=8.13x    frame=26641 fps=195 q=-0.0 size=N/A time=00:18:31.15 bitrate=N/A speed=8.13x    frame=26744 fps=195 q=-0.0 size=N/A time=00:18:35.44 bitrate=N/A speed=8.13x    frame=26844 fps=195 q=-0.0 size=N/A time=00:18:39.61 bitrate=N/A speed=8.13x    frame=26945 fps=195 q=-0.0 size=N/A time=00:18:43.83 bitrate=N/A speed=8.13x    frame=27044 fps=195 q=-0.0 size=N/A time=00:18:47.96 bitrate=N/A speed=8.13x    frame=27140 fps=195 q=-0.0 size=N/A time=00:18:51.96 bitrate=N/A speed=8.13x    frame=27240 fps=195 q=-0.0 size=N/A time=00:18:56.13 bitrate=N/A speed=8.13x    frame=27339 fps=195 q=-0.0 size=N/A time=00:19:00.26 bitrate=N/A speed=8.13x    frame=27442 fps=195 q=-0.0 size=N/A time=00:19:04.56 bitrate=N/A speed=8.13x    frame=27528 fps=195 q=-0.0 size=N/A time=00:19:08.14 bitrate=N/A speed=8.12x    frame=27647 fps=195 q=-0.0 size=N/A time=00:19:13.11 bitrate=N/A speed=8.13x    frame=27745 fps=195 q=-0.0 size=N/A time=00:19:17.19 bitrate=N/A speed=8.13x    frame=27845 fps=195 q=-0.0 size=N/A time=00:19:21.36 bitrate=N/A speed=8.13x    frame=27945 fps=195 q=-0.0 size=N/A time=00:19:25.53 bitrate=N/A speed=8.13x    frame=28040 fps=195 q=-0.0 size=N/A time=00:19:29.50 bitrate=N/A speed=8.13x    frame=28137 fps=195 q=-0.0 size=N/A time=00:19:33.54 bitrate=N/A speed=8.13x    frame=28243 fps=195 q=-0.0 size=N/A time=00:19:37.96 bitrate=N/A speed=8.13x    frame=28330 fps=195 q=-0.0 size=N/A time=00:19:41.59 bitrate=N/A speed=8.12x    frame=28436 fps=195 q=-0.0 size=N/A time=00:19:46.01 bitrate=N/A speed=8.12x    frame=28536 fps=195 q=-0.0 size=N/A time=00:19:50.18 bitrate=N/A speed=8.12x    frame=28632 fps=195 q=-0.0 size=N/A time=00:19:54.19 bitrate=N/A speed=8.12x    frame=28730 fps=195 q=-0.0 size=N/A time=00:19:58.28 bitrate=N/A speed=8.12x    frame=28830 fps=195 q=-0.0 size=N/A time=00:20:02.45 bitrate=N/A speed=8.12x    frame=28930 fps=195 q=-0.0 size=N/A time=00:20:06.62 bitrate=N/A speed=8.12x    frame=29026 fps=195 q=-0.0 size=N/A time=00:20:10.62 bitrate=N/A speed=8.12x    frame=29115 fps=195 q=-0.0 size=N/A time=00:20:14.33 bitrate=N/A speed=8.12x    frame=29220 fps=195 q=-0.0 size=N/A time=00:20:18.71 bitrate=N/A speed=8.12x    frame=29314 fps=195 q=-0.0 size=N/A time=00:20:22.63 bitrate=N/A speed=8.12x    frame=29421 fps=195 q=-0.0 size=N/A time=00:20:27.10 bitrate=N/A speed=8.12x    frame=29514 fps=195 q=-0.0 size=N/A time=00:20:30.97 bitrate=N/A speed=8.12x    frame=29610 fps=195 q=-0.0 size=N/A time=00:20:34.98 bitrate=N/A speed=8.12x    frame=29717 fps=195 q=-0.0 size=N/A time=00:20:39.44 bitrate=N/A speed=8.12x    frame=29808 fps=195 q=-0.0 size=N/A time=00:20:43.24 bitrate=N/A speed=8.12x    frame=29908 fps=195 q=-0.0 size=N/A time=00:20:47.41 bitrate=N/A speed=8.12x    frame=30017 fps=195 q=-0.0 size=N/A time=00:20:51.95 bitrate=N/A speed=8.12x    frame=30109 fps=195 q=-0.0 size=N/A time=00:20:55.79 bitrate=N/A speed=8.12x    frame=30213 fps=195 q=-0.0 size=N/A time=00:21:00.13 bitrate=N/A speed=8.12x    frame=30317 fps=195 q=-0.0 size=N/A time=00:21:04.47 bitrate=N/A speed=8.12x    frame=30413 fps=195 q=-0.0 size=N/A time=00:21:08.47 bitrate=N/A speed=8.12x    frame=30516 fps=195 q=-0.0 size=N/A time=00:21:12.77 bitrate=N/A speed=8.12x    frame=30615 fps=195 q=-0.0 size=N/A time=00:21:16.90 bitrate=N/A speed=8.12x    frame=30715 fps=195 q=-0.0 size=N/A time=00:21:21.07 bitrate=N/A speed=8.12x    frame=30821 fps=195 q=-0.0 size=N/A time=00:21:25.49 bitrate=N/A speed=8.12x    frame=30925 fps=195 q=-0.0 size=N/A time=00:21:29.83 bitrate=N/A speed=8.12x    frame=31024 fps=195 q=-0.0 size=N/A time=00:21:33.95 bitrate=N/A speed=8.12x    frame=31124 fps=195 q=-0.0 size=N/A time=00:21:38.13 bitrate=N/A speed=8.12x    frame=31227 fps=195 q=-0.0 size=N/A time=00:21:42.42 bitrate=N/A speed=8.12x    frame=31327 fps=195 q=-0.0 size=N/A time=00:21:46.59 bitrate=N/A speed=8.12x    frame=31421 fps=195 q=-0.0 size=N/A time=00:21:50.51 bitrate=N/A speed=8.12x    frame=31528 fps=195 q=-0.0 size=N/A time=00:21:54.98 bitrate=N/A speed=8.12x    frame=31625 fps=195 q=-0.0 size=N/A time=00:21:59.02 bitrate=N/A speed=8.12x    frame=31722 fps=195 q=-0.0 size=N/A time=00:22:03.07 bitrate=N/A speed=8.12x    frame=31823 fps=195 q=-0.0 size=N/A time=00:22:07.28 bitrate=N/A speed=8.12x    frame=31927 fps=195 q=-0.0 size=N/A time=00:22:11.62 bitrate=N/A speed=8.12x    frame=32026 fps=195 q=-0.0 size=N/A time=00:22:15.75 bitrate=N/A speed=8.12x    frame=32127 fps=195 q=-0.0 size=N/A time=00:22:19.96 bitrate=N/A speed=8.12x    frame=32228 fps=195 q=-0.0 size=N/A time=00:22:24.17 bitrate=N/A speed=8.12x    frame=32332 fps=195 q=-0.0 size=N/A time=00:22:28.51 bitrate=N/A speed=8.12x    frame=32431 fps=195 q=-0.0 size=N/A time=00:22:32.64 bitrate=N/A speed=8.12x    frame=32533 fps=195 q=-0.0 size=N/A time=00:22:36.89 bitrate=N/A speed=8.12x    frame=32633 fps=195 q=-0.0 size=N/A time=00:22:41.06 bitrate=N/A speed=8.12x    frame=32735 fps=195 q=-0.0 size=N/A time=00:22:45.32 bitrate=N/A speed=8.12x    frame=32824 fps=195 q=-0.0 size=N/A time=00:22:49.03 bitrate=N/A speed=8.12x    frame=32926 fps=195 q=-0.0 size=N/A time=00:22:53.28 bitrate=N/A speed=8.12x    frame=33025 fps=195 q=-0.0 size=N/A time=00:22:57.41 bitrate=N/A speed=8.12x    frame=33129 fps=195 q=-0.0 size=N/A time=00:23:01.75 bitrate=N/A speed=8.12x    frame=33230 fps=195 q=-0.0 size=N/A time=00:23:05.96 bitrate=N/A speed=8.12x    frame=33324 fps=195 q=-0.0 size=N/A time=00:23:09.88 bitrate=N/A speed=8.12x    frame=33431 fps=195 q=-0.0 size=N/A time=00:23:14.35 bitrate=N/A speed=8.12x    frame=33532 fps=195 q=-0.0 size=N/A time=00:23:18.56 bitrate=N/A speed=8.12x    frame=33633 fps=195 q=-0.0 size=N/A time=00:23:22.77 bitrate=N/A speed=8.12x    frame=33741 fps=195 q=-0.0 size=N/A time=00:23:27.28 bitrate=N/A speed=8.12x    frame=33840 fps=195 q=-0.0 size=N/A time=00:23:31.41 bitrate=N/A speed=8.12x    frame=33942 fps=195 q=-0.0 size=N/A time=00:23:35.66 bitrate=N/A speed=8.12x    frame=34036 fps=195 q=-0.0 size=N/A time=00:23:39.58 bitrate=N/A speed=8.12x    frame=34141 fps=195 q=-0.0 size=N/A time=00:23:43.96 bitrate=N/A speed=8.12x    frame=34242 fps=195 q=-0.0 size=N/A time=00:23:48.17 bitrate=N/A speed=8.12x    frame=34342 fps=195 q=-0.0 size=N/A time=00:23:52.34 bitrate=N/A speed=8.12x    frame=34443 fps=195 q=-0.0 size=N/A time=00:23:56.56 bitrate=N/A speed=8.12x    frame=34548 fps=195 q=-0.0 size=N/A time=00:24:00.93 bitrate=N/A speed=8.12x    frame=34636 fps=195 q=-0.0 size=N/A time=00:24:04.60 bitrate=N/A speed=8.12x    frame=34748 fps=195 q=-0.0 size=N/A time=00:24:09.28 bitrate=N/A speed=8.12x    frame=34853 fps=195 q=-0.0 size=N/A time=00:24:13.66 bitrate=N/A speed=8.12x    frame=34940 fps=195 q=-0.0 size=N/A time=00:24:17.28 bitrate=N/A speed=8.12x    frame=35043 fps=195 q=-0.0 size=N/A time=00:24:21.58 bitrate=N/A speed=8.12x    frame=35154 fps=195 q=-0.0 size=N/A time=00:24:26.21 bitrate=N/A speed=8.12x    frame=35258 fps=195 q=-0.0 size=N/A time=00:24:30.55 bitrate=N/A speed=8.12x    frame=35356 fps=195 q=-0.0 size=N/A time=00:24:34.63 bitrate=N/A speed=8.12x    frame=35459 fps=195 q=-0.0 size=N/A time=00:24:38.93 bitrate=N/A speed=8.12x    frame=35559 fps=195 q=-0.0 size=N/A time=00:24:43.10 bitrate=N/A speed=8.12x    [Parsed_psnr_10 @ 0000025871237340] PSNR y:45.224757 u:49.852144 v:49.102595 average:46.235658 min:37.887344 max:75.795626
[out#0/null @ 0000025865dd9bc0] video:15304KiB audio:278528KiB subtitle:0KiB other streams:0KiB global headers:0KiB muxing overhead: unknown
frame=35616 fps=195 q=-0.0 Lsize=N/A time=00:24:45.48 bitrate=N/A speed=8.12x    
